<svg width="22" height="18" viewBox="0 0 22 18" fill="none" xmlns="http://www.w3.org/2000/svg">
<path d="M0.0400001 17.4V11.72C0.0400001 9.53333 0.386667 7.50666 1.08 5.64C1.82667 3.77333 3.08 1.93333 4.84 0.119998L7.96 2.44C6.78667 3.72 5.93333 4.92 5.4 6.04C4.86667 7.10666 4.54667 8.17333 4.44 9.24H8.2V17.4H0.0400001ZM13.32 17.4V11.72C13.32 9.53333 13.6667 7.50666 14.36 5.64C15.1067 3.77333 16.36 1.93333 18.12 0.119998L21.24 2.44C20.0667 3.72 19.2133 4.92 18.68 6.04C18.1467 7.10666 17.8267 8.17333 17.72 9.24H21.48V17.4H13.32Z" fill="#62E0D9"/>
</svg>
