<svg width="24" height="24" viewBox="0 0 24 24" fill="none" xmlns="http://www.w3.org/2000/svg">
<rect width="24" height="24" fill="#F2F2F2"/>
<g id="Desktop" clip-path="url(#clip0_0_1)">
<rect width="1440" height="3546" transform="translate(-120 -3362)" fill="white"/>
<rect id="Rectangle" x="-120" y="-3362" width="1440" height="3546" fill="#1B2330"/>
<rect id="Rectangle_2" x="-120" y="-257" width="1441" height="441" fill="#0B1524"/>
<g id="Group 33">
<g id="Group 37">
<g id="Group 34">
<g id="place">
<path id="Shape" fill-rule="evenodd" clip-rule="evenodd" d="M6.1875 3C2.74018 3 0 5.79 0 9.3C0 13.98 6.1875 21 6.1875 21C6.1875 21 12.375 13.98 12.375 9.3C12.375 5.79 9.63482 3 6.1875 3ZM6.1875 11.55C4.95 11.55 3.97768 10.56 3.97768 9.3C3.97768 8.04 4.95 7.05 6.1875 7.05C7.425 7.05 8.39732 8.04 8.39732 9.3C8.39732 10.56 7.425 11.55 6.1875 11.55Z" fill="white"/>
</g>
</g>
</g>
</g>
</g>
<defs>
<clipPath id="clip0_0_1">
<rect width="1440" height="3546" fill="white" transform="translate(-120 -3362)"/>
</clipPath>
</defs>
</svg>
